<svg width="18" height="18" viewBox="0 0 18 18" fill="none" xmlns="http://www.w3.org/2000/svg">
<path d="M10.5 9C9.67875 9 9 8.32125 9 7.5C9 7.2345 9.07725 6.98775 9.201 6.77025C9.1335 6.765 9.069 6.75 9 6.75C8.40448 6.75393 7.83446 6.99225 7.41335 7.41335C6.99225 7.83446 6.75393 8.40448 6.75 9C6.75 10.2315 7.7685 11.25 9 11.25C10.2308 11.25 11.25 10.2315 11.25 9C11.25 8.931 11.235 8.8665 11.2297 8.799C11.0122 8.92275 10.7655 9 10.5 9Z" fill="#605D66"/>
<path d="M9 3.75C3.27525 3.75 1.55475 8.71275 1.539 8.763L1.4595 9L1.53825 9.237C1.55475 9.28725 3.27525 14.25 9 14.25C14.7248 14.25 16.4453 9.28725 16.461 9.237L16.5405 9L16.4618 8.763C16.4453 8.71275 14.7248 3.75 9 3.75ZM9 12.75C4.98675 12.75 3.432 9.8655 3.0555 9C3.4335 8.1315 4.989 5.25 9 5.25C13.0133 5.25 14.568 8.1345 14.9445 9C14.5665 9.8685 13.011 12.75 9 12.75Z" fill="#605D66"/>
</svg>
