<svg width="18" height="18" viewBox="0 0 18 18" fill="none" xmlns="http://www.w3.org/2000/svg">
<path d="M1.5 3.9525L2.46 3L15 15.54L14.0475 16.5L11.7375 14.19C10.875 14.475 9.96 14.625 9 14.625C5.25 14.625 2.0475 12.2925 0.75 9C1.2675 7.68 2.0925 6.5175 3.1425 5.595L1.5 3.9525ZM9 6.75C9.59674 6.75 10.169 6.98705 10.591 7.40901C11.0129 7.83097 11.25 8.40326 11.25 9C11.2504 9.25542 11.2073 9.50905 11.1225 9.75L8.25 6.8775C8.49095 6.79274 8.74458 6.74962 9 6.75ZM9 3.375C12.75 3.375 15.9525 5.7075 17.25 9C16.6375 10.5547 15.5974 11.9042 14.25 12.8925L13.185 11.82C14.2222 11.1026 15.0587 10.1318 15.615 9C15.0087 7.7624 14.0674 6.71972 12.898 5.99051C11.7286 5.26131 10.3781 4.87482 9 4.875C8.1825 4.875 7.38 5.01 6.63 5.25L5.475 4.1025C6.555 3.6375 7.7475 3.375 9 3.375ZM2.385 9C2.99126 10.2376 3.93259 11.2803 5.10198 12.0095C6.27136 12.7387 7.62188 13.1252 9 13.125C9.5175 13.125 10.0275 13.0725 10.5 12.9675L8.79 11.25C8.26812 11.1941 7.78112 10.9612 7.40998 10.59C7.03884 10.2189 6.80594 9.73188 6.75 9.21L4.2 6.6525C3.4575 7.29 2.835 8.085 2.385 9Z" fill="#605D66"/>
</svg>
